<svg width="24" height="24" viewBox="0 0 24 24" fill="none" xmlns="http://www.w3.org/2000/svg">
<path d="M12.7692 2H5.07693C4.6689 2 4.27759 2.16209 3.98907 2.45061C3.70055 2.73912 3.53846 3.13044 3.53846 3.53846V17.3846L2 22L8.15386 20.4616H20.4616C20.8696 20.4616 21.2609 20.2995 21.5494 20.011C21.8379 19.7224 22 19.3311 22 18.9231V11.2308" stroke="#FCFCFC" stroke-width="1.71429" stroke-linecap="round" stroke-linejoin="round"/>
<path d="M14.0971 13.7492L9.48169 14.58L10.2509 9.90303L17.5279 2.65686C17.6708 2.51248 17.8409 2.39786 18.0284 2.31964C18.2159 2.24142 18.417 2.20114 18.6202 2.20114C18.8233 2.20114 19.0245 2.24142 19.2119 2.31964C19.3994 2.39786 19.5696 2.51248 19.7125 2.65686L21.3432 4.28764C21.4873 4.43076 21.6015 4.60095 21.6795 4.78841C21.7575 4.97587 21.7977 5.17691 21.7977 5.37994C21.7977 5.58298 21.7575 5.78402 21.6795 5.97148C21.6015 6.15894 21.4873 6.32913 21.3432 6.47225L14.0971 13.7492Z" stroke="#FCFCFC" stroke-width="1.71429" stroke-linecap="round" stroke-linejoin="round"/>
</svg>
