<svg width="24" height="24" viewBox="0 0 24 24" fill="none" xmlns="http://www.w3.org/2000/svg">
<path d="M2 8.32701C1.99945 7.49544 2.16207 6.67194 2.47856 5.90365C2.79504 5.13536 3.25918 4.43737 3.84438 3.84966C4.42958 3.26195 5.12435 2.79606 5.88892 2.47867C6.65348 2.16128 7.47282 1.99862 8.3 2.00001H16.7C20.1786 2.00001 23 4.84473 23 8.32701V21H8.3C4.82135 21 2 18.1553 2 14.673V8.32701ZM20.9 18.8889V8.32701C20.8972 7.20865 20.4536 6.13698 19.6664 5.34677C18.8792 4.55656 17.8125 4.11223 16.7 4.11112H8.3C7.74859 4.10973 7.20233 4.21778 6.69255 4.42908C6.18277 4.64038 5.7195 4.95076 5.3293 5.34244C4.9391 5.73411 4.62965 6.19937 4.4187 6.71153C4.20775 7.22369 4.09945 7.77268 4.1 8.32701V14.673C4.10278 15.7914 4.54637 16.863 5.3336 17.6532C6.12083 18.4434 7.18752 18.8878 8.3 18.8889H20.9ZM14.6 10.4444H16.7V12.5556H14.6V10.4444ZM8.3 10.4444H10.4V12.5556H8.3V10.4444Z" fill="#FCFCFC"/>
</svg>
