<?xml version="1.0" encoding="UTF-8" standalone="no"?>
<svg
   width="21.000002"
   height="18.999998"
   viewBox="0 0 21.000002 18.999998"
   fill="none"
   version="1.1"
   id="svg1"
   sodipodi:docname="message.svg"
   xmlns:inkscape="http://www.inkscape.org/namespaces/inkscape"
   xmlns:sodipodi="http://sodipodi.sourceforge.net/DTD/sodipodi-0.dtd"
   xmlns="http://www.w3.org/2000/svg"
   xmlns:svg="http://www.w3.org/2000/svg">
  <defs
     id="defs1" />
  <sodipodi:namedview
     id="namedview1"
     pagecolor="#505050"
     bordercolor="#eeeeee"
     borderopacity="1"
     inkscape:showpageshadow="0"
     inkscape:pageopacity="0"
     inkscape:pagecheckerboard="0"
     inkscape:deskcolor="#505050" />
  <path
     d="M 1.4305115e-6,6.3270088 C -5.4856949e-4,5.4954388 0.16207143,4.6719388 0.47856143,3.9036488 c 0.31648,-0.76829 0.78061997,-1.46628 1.36581997,-2.05399 0.5852,-0.58771 1.27997,-1.05359999 2.04454,-1.37098999 0.76456,-0.31739 1.5839,-0.48005 2.41108,-0.4786600020929 h 8.3999996 c 3.4786,0 6.3,2.8447199920929 6.3,6.3269999920929 V 18.999999 H 6.3000014 c -3.47865,0 -6.2999999694885,-2.8447 -6.2999999694885,-6.327 z M 18.900001,16.888899 V 6.3270088 c -0.0028,-1.11836 -0.4464,-2.19003 -1.2336,-2.98024 -0.7872,-0.79021 -1.8539,-1.23454 -2.9664,-1.23565 H 6.3000014 c -0.55141,-0.00139 -1.09767,0.10666 -1.60745,0.31796 -0.50978,0.2113 -0.97305,0.52168 -1.36325,0.91336 -0.3902,0.39167 -0.69965,0.85693 -0.9106,1.36909 -0.21095,0.51216 -0.31925,1.06115 -0.3187,1.61548 v 6.3459902 c 0.00278,1.1184 0.44637,2.19 1.2336,2.9802 0.78723,0.7902 1.85392,1.2346 2.9664,1.2357 z m -6.3,-8.4445002 h 2.1 v 2.1112002 h -2.1 z m -6.2999996,0 h 2.1 v 2.1112002 h -2.1 z"
     fill="#FCFCFC"
     id="path1"
     style="fill:#f9f9f9" />
</svg>
